<mxfile host="app.diagrams.net" modified="2021-11-09T11:07:47.109Z" agent="5.0 (Windows NT 10.0; Win64; x64) AppleWebKit/537.36 (KHTML, like Gecko) Chrome/95.0.4638.69 Safari/537.36" etag="0PKxdZiypPaRE9PyAyz8" version="15.7.0" type="github">
  <diagram name="Page-1" id="e7e014a7-5840-1c2e-5031-d8a46d1fe8dd">
    <mxGraphModel dx="1422" dy="794" grid="1" gridSize="10" guides="1" tooltips="1" connect="1" arrows="1" fold="1" page="1" pageScale="1" pageWidth="1169" pageHeight="826" background="none" math="0" shadow="0">
      <root>
        <mxCell id="0" />
        <mxCell id="1" parent="0" />
        <mxCell id="6GGhE5YcDbEnl-xsZiu5-41" value="Character Class" style="swimlane;" vertex="1" parent="1">
          <mxGeometry x="140" y="150" width="200" height="200" as="geometry" />
        </mxCell>
        <mxCell id="6GGhE5YcDbEnl-xsZiu5-43" value="MoveForward()&lt;br&gt;MoveRight()&lt;br&gt;Jump()&lt;br&gt;Wallrun()" style="text;html=1;align=center;verticalAlign=middle;resizable=0;points=[];autosize=1;strokeColor=none;fillColor=none;" vertex="1" parent="6GGhE5YcDbEnl-xsZiu5-41">
          <mxGeometry x="10" y="25" width="100" height="60" as="geometry" />
        </mxCell>
      </root>
    </mxGraphModel>
  </diagram>
</mxfile>
